<svg width="48" height="48" fill="none" xmlns="http://www.w3.org/2000/svg"><circle cx="24" cy="24" r="24" fill="#fff"></circle><path fill-rule="evenodd" clip-rule="evenodd" d="M20.704 31.5c6.788 0 10.5-5.772 10.5-10.776 0-.165 0-.328-.01-.49a7.607 7.607 0 0 0 1.84-1.96 7.2 7.2 0 0 1-2.118.595 3.789 3.789 0 0 0 1.622-2.095 7.285 7.285 0 0 1-2.344.92 3.628 3.628 0 0 0-5.222-.165 3.857 3.857 0 0 0-1.067 3.62c-2.967-.154-5.732-1.592-7.606-3.957-.98 1.73-.479 3.943 1.143 5.055a3.59 3.59 0 0 1-1.676-.474v.048c.001 1.803 1.24 3.355 2.961 3.712a3.58 3.58 0 0 1-1.666.065c.483 1.543 1.87 2.6 3.448 2.63a7.285 7.285 0 0 1-5.462 1.57 10.257 10.257 0 0 0 5.657 1.7" fill="#2E2667"></path></svg>