<svg width="48" height="48" fill="none" xmlns="http://www.w3.org/2000/svg"><circle cx="24" cy="24" r="24" fill="#fff"></circle><path fill-rule="evenodd" clip-rule="evenodd" d="M20.502 15.11c-1.464.067-2.733.425-3.758 1.446-1.028 1.026-1.382 2.301-1.448 3.751-.041.905-.282 7.741.416 9.534a4.535 4.535 0 0 0 2.618 2.612c.569.222 1.219.372 2.172.416 7.969.36 10.923.164 12.169-3.028.22-.568.373-1.217.415-2.169.364-7.995-.06-9.728-1.448-11.116-1.102-1.1-2.398-1.848-11.136-1.446Zm.073 16.15c-.872-.039-1.346-.184-1.662-.306a2.928 2.928 0 0 1-1.698-1.695c-.532-1.362-.356-7.833-.308-8.88.046-1.025.254-1.962.977-2.686.895-.893 2.051-1.331 9.924-.976 1.027.047 1.966.254 2.69.976.896.893 1.34 2.06.978 9.907-.04.871-.185 1.344-.308 1.659-.81 2.077-2.673 2.365-10.593 2.002Zm7.32-12.04a1.073 1.073 0 0 0 2.148 0 1.074 1.074 0 0 0-2.148 0Zm-8.299 4.77a4.592 4.592 0 0 0 4.595 4.587 4.592 4.592 0 0 0 4.596-4.588 4.59 4.59 0 0 0-4.596-4.586 4.59 4.59 0 0 0-4.595 4.586Zm1.613 0a2.98 2.98 0 0 1 2.982-2.978 2.98 2.98 0 0 1 2.983 2.977 2.98 2.98 0 0 1-2.983 2.979 2.98 2.98 0 0 1-2.982-2.979Z" fill="#2E2667"></path></svg>