<svg width="48" height="48" fill="none" xmlns="http://www.w3.org/2000/svg"><circle cx="24" cy="24" r="24" fill="#fff"></circle><path fill-rule="evenodd" clip-rule="evenodd" d="M31.595 31.5h-2.998v-5.25c0-1.44-.635-2.243-1.773-2.243-1.239 0-1.974.837-1.974 2.244V31.5h-2.998v-9.75h2.998v1.096s.94-1.651 3.06-1.651 3.685 1.295 3.685 3.974V31.5Zm-13.16-11.31a1.838 1.838 0 0 1-1.83-1.845c0-1.018.82-1.845 1.83-1.845 1.011 0 1.83.826 1.83 1.845 0 1.02-.819 1.846-1.83 1.846Zm-1.83 11.31h3.748v-9.75h-3.748v9.75Z" fill="#2E2667"></path></svg>